<mxfile host="app.diagrams.net" modified="2022-06-30T16:44:12.719Z" agent="5.0 (Macintosh; Intel Mac OS X 10_15_7) AppleWebKit/605.1.15 (KHTML, like Gecko) Version/15.3 Safari/605.1.15" etag="bhcYmazWZiCKycgCr_jR" version="20.0.3" type="github">
  <diagram id="C5RBs43oDa-KdzZeNtuy" name="Page-1">
    <mxGraphModel dx="1018" dy="690" grid="1" gridSize="10" guides="1" tooltips="1" connect="1" arrows="1" fold="1" page="1" pageScale="1" pageWidth="827" pageHeight="1169" math="0" shadow="0">
      <root>
        <mxCell id="WIyWlLk6GJQsqaUBKTNV-0" />
        <mxCell id="WIyWlLk6GJQsqaUBKTNV-1" parent="WIyWlLk6GJQsqaUBKTNV-0" />
        <mxCell id="qzerSX6aM9m_twZW1p7N-2" value="" style="edgeStyle=orthogonalEdgeStyle;rounded=0;orthogonalLoop=1;jettySize=auto;html=1;fontSize=16;" edge="1" parent="WIyWlLk6GJQsqaUBKTNV-1" source="qzerSX6aM9m_twZW1p7N-0" target="qzerSX6aM9m_twZW1p7N-1">
          <mxGeometry relative="1" as="geometry" />
        </mxCell>
        <mxCell id="qzerSX6aM9m_twZW1p7N-0" value="일단 전체적으로 하나의 함수, 즉&lt;br&gt;&lt;span style=&quot;caret-color: rgb(51, 65, 85); color: rgb(51, 65, 85); font-family: Inter, -apple-system, BlinkMacSystemFont, &amp;quot;Segoe UI&amp;quot;, Roboto, &amp;quot;Helvetica Neue&amp;quot;, Arial, &amp;quot;Noto Sans&amp;quot;, &amp;quot;Liberation Sans&amp;quot;, sans-serif, &amp;quot;Apple Color Emoji&amp;quot;, &amp;quot;Segoe UI Emoji&amp;quot;, &amp;quot;Segoe UI Symbol&amp;quot;, &amp;quot;Noto Color Emoji&amp;quot;; text-align: left; background-color: rgb(255, 255, 255);&quot;&gt;랜덤한 로또 당첨 번호를 생성하는 함수를 만들어야함.&lt;br&gt;(함수이름:printLotteryNumber)&lt;br&gt;&lt;/span&gt;&lt;span style=&quot;text-align: start;&quot; id=&quot;docs-internal-guid-5ac01877-7fff-8b62-4bf5-531d58469aaa&quot;&gt;&lt;p style=&quot;line-height: 1.38; margin-top: 0pt; margin-bottom: 0pt;&quot; dir=&quot;ltr&quot;&gt;&lt;span style=&quot;font-size: 11pt; font-family: Arial; font-variant-ligatures: normal; font-variant-east-asian: normal; font-variant-position: normal; vertical-align: baseline;&quot;&gt;1...45중 6개의 중복되지 않은 값을 출력하기 위한 반복문을 작성해야 함. &amp;nbsp;&lt;/span&gt;&lt;/p&gt;&lt;p style=&quot;line-height: 1.38; margin-top: 0pt; margin-bottom: 0pt;&quot; dir=&quot;ltr&quot;&gt;&lt;span style=&quot;font-size: 11pt; font-family: Arial; font-variant-ligatures: normal; font-variant-east-asian: normal; font-variant-position: normal; vertical-align: baseline;&quot;&gt;&amp;nbsp; &amp;nbsp; &amp;nbsp; &amp;nbsp; &amp;nbsp; &amp;nbsp; &amp;nbsp; &amp;nbsp; &amp;nbsp; &amp;nbsp; &amp;nbsp; &amp;nbsp; &amp;nbsp; &amp;nbsp;(반복의 방법은 for _ in 1…6, while문 etc)&lt;/span&gt;&lt;/p&gt;&lt;p style=&quot;line-height: 1.38; margin-top: 0pt; margin-bottom: 0pt;&quot; dir=&quot;ltr&quot;&gt;&lt;font face=&quot;Arial&quot;&gt;&lt;span style=&quot;font-size: 14.666666984558105px;&quot;&gt;그렇게 반복하여 나온 값들을&amp;nbsp;&lt;/span&gt;&lt;/font&gt;&lt;span style=&quot;font-family: Arial; font-size: 11pt;&quot;&gt;collection type에 넣고 그것을 변수에 저장하는 것!&lt;/span&gt;&lt;/p&gt;&lt;p style=&quot;line-height: 1.38; margin-top: 0pt; margin-bottom: 0pt;&quot; dir=&quot;ltr&quot;&gt;&lt;span style=&quot;font-size: 11pt; font-family: Arial; font-variant-ligatures: normal; font-variant-east-asian: normal; font-variant-position: normal; vertical-align: baseline;&quot;&gt;저장하려면 그에 앞서 우선 collection type을 무엇으로 할지 정해야 함.&amp;nbsp;&lt;/span&gt;&lt;/p&gt;&lt;p style=&quot;line-height: 1.38; margin-top: 0pt; margin-bottom: 0pt;&quot; dir=&quot;ltr&quot;&gt;&lt;font face=&quot;Arial&quot;&gt;&lt;span style=&quot;font-size: 14.666666984558105px;&quot;&gt;빈 collection type은 랜덤하게 선택되는 6개 중에 중복되어 대입되지 않도록 set으로 하기로 하자. (var Number : Set&amp;lt;Int&amp;gt; = [])&lt;/span&gt;&lt;/font&gt;&lt;/p&gt;&lt;br&gt;&lt;/span&gt;" style="rounded=1;whiteSpace=wrap;html=1;fontSize=16;" vertex="1" parent="WIyWlLk6GJQsqaUBKTNV-1">
          <mxGeometry x="180" y="10" width="520" height="230" as="geometry" />
        </mxCell>
        <mxCell id="qzerSX6aM9m_twZW1p7N-4" value="" style="edgeStyle=orthogonalEdgeStyle;rounded=0;orthogonalLoop=1;jettySize=auto;html=1;fontSize=16;" edge="1" parent="WIyWlLk6GJQsqaUBKTNV-1" source="qzerSX6aM9m_twZW1p7N-1" target="qzerSX6aM9m_twZW1p7N-3">
          <mxGeometry relative="1" as="geometry" />
        </mxCell>
        <mxCell id="qzerSX6aM9m_twZW1p7N-1" value="여기서 6개를 뽑는 반복문을 실행할 때 기존에 쓰던 for in 문을 쓰면 문제가 발생한다. set이라는 컬렉션 타입 자체는 중복된 값을 원소로서 가지지 않지만 for in문을 6번 반복할 때&lt;br&gt;&amp;nbsp;중복된 값이 random method에서 출력되어 Set의 원소의 개수가 6개가 아닌 5개 혹은 그 이하가 될 수 있어 중복되지 않는 6개의 원소를 가지라는 문제의 조건을 충족하지 못하게 된다." style="rounded=1;whiteSpace=wrap;html=1;fontSize=16;" vertex="1" parent="WIyWlLk6GJQsqaUBKTNV-1">
          <mxGeometry x="185" y="320" width="510" height="180" as="geometry" />
        </mxCell>
        <mxCell id="qzerSX6aM9m_twZW1p7N-3" value="그래서 이러한 문제를 해결하기 위해 while 문을 활용한다. set의 원소 개수가 6개가 나올때까지 반복하는 것이다. for in 문처럼 반복의 개수를 정해놓지 않고 while 뒤에 나오는 boolean data type의 값이 false가 나올 때까지 반복하는 것이기에 set의 원소 개수가 6개를 초과할 때까지 반복해서 출력하도록 하는 것이다. (while Number.count &amp;lt; 6)&lt;br&gt;Number.insert(Int.random(in: 1...45))와 같이 (1에서 45)중 뽑은 난수 값을 Set에 넣는다.&lt;br&gt;&amp;nbsp;이러한 내용을 하나의 함수에 담고 그 함수의 반환 값은 Set&amp;lt;Int&amp;gt;를 담은 변수(Number)로 한다.&lt;br&gt;그렇게 함수를 만들고 print(printLotteryNumber()) 하면 1...45중 무작위로 선택되고 중복되지 않은 6개의 원소를 담은 하나의 set가 출력된다." style="rounded=1;whiteSpace=wrap;html=1;fontSize=16;" vertex="1" parent="WIyWlLk6GJQsqaUBKTNV-1">
          <mxGeometry x="145" y="585" width="590" height="215.5" as="geometry" />
        </mxCell>
      </root>
    </mxGraphModel>
  </diagram>
</mxfile>
